HIERARCHY
ROOT Hips
{
  OFFSET 51.4465 96.0886 7.46906
  CHANNELS 6 Xposition Yposition Zposition Zrotation Xrotation Yrotation
  JOINT spine
  {
    OFFSET 0 8.13249 0.467659
    CHANNELS 3 Zrotation Xrotation Yrotation
    JOINT spine1
    {
      OFFSET 0 10.3498 0
      CHANNELS 3 Zrotation Xrotation Yrotation
      JOINT spine2
      {
        OFFSET 0 9.91699 0
        CHANNELS 3 Zrotation Xrotation Yrotation
        JOINT Neck
        {
          OFFSET 0 25.461 1.2139
          CHANNELS 3 Zrotation Xrotation Yrotation
          JOINT Head
          {
            OFFSET 0 7.69245 0
            CHANNELS 3 Zrotation Xrotation Yrotation
            End Site
            {
              OFFSET 0 18.62 -6.14063
            }
          }
        }
        JOINT RightShoulder
        {
          OFFSET -4.17575 10.7096 -0.581445
          CHANNELS 3 Zrotation Xrotation Yrotation
          JOINT RightArm
          {
            OFFSET 0 14.0466 0
            CHANNELS 3 Zrotation Xrotation Yrotation
            JOINT RightArmRoll
            {
              OFFSET 0 7.09098 0
              CHANNELS 3 Zrotation Xrotation Yrotation
              JOINT RightForeArm
              {
                OFFSET 0 20.6535 0
                CHANNELS 3 Zrotation Xrotation Yrotation
                JOINT RightForeArmRoll
                {
                  OFFSET 0 7.95718 0
                  CHANNELS 3 Zrotation Xrotation Yrotation
                  JOINT RightHand
                  {
                    OFFSET 0 15.9683 0
                    CHANNELS 3 Zrotation Xrotation Yrotation
                    End Site
                    {
                      OFFSET 0 0 0
                    }
                  }
                }
              }
            }
          }
        }
        JOINT LeftShoulder
        {
          OFFSET 4.17575 10.7096 -0.581445
          CHANNELS 3 Zrotation Xrotation Yrotation
          JOINT LeftArm
          {
            OFFSET 0 14.0466 0
            CHANNELS 3 Zrotation Xrotation Yrotation
            JOINT LeftArmRoll
            {
              OFFSET 0 7.09099 0
              CHANNELS 3 Zrotation Xrotation Yrotation
              JOINT LeftForeArm
              {
                OFFSET 0 20.6535 0
                CHANNELS 3 Zrotation Xrotation Yrotation
                JOINT LeftForeArmRoll
                {
                  OFFSET 0 7.95718 0
                  CHANNELS 3 Zrotation Xrotation Yrotation
                  JOINT LeftHand
                  {
                    OFFSET 0 15.9683 0
                    CHANNELS 3 Zrotation Xrotation Yrotation
                    End Site
                    {
                      OFFSET 0 0 0
                    }
                  }
                }
              }
            }
          }
        }
      }
    }
  }
  JOINT RightUpLeg
  {
    OFFSET -7.20834 -1.32182 -1.10884
    CHANNELS 3 Zrotation Xrotation Yrotation
    JOINT RightUpLegRoll
    {
      OFFSET 0 18.7238 0
      CHANNELS 3 Zrotation Xrotation Yrotation
      JOINT RightLeg
      {
        OFFSET 0 -23.1866 0
        CHANNELS 3 Zrotation Xrotation Yrotation
        JOINT RightLegRoll
        {
          OFFSET 0 23.2624 0
          CHANNELS 3 Zrotation Xrotation Yrotation
          JOINT RightFoot
          {
            OFFSET 0 19.3621 0
            CHANNELS 3 Zrotation Xrotation Yrotation
            JOINT RightToeBase
            {
              OFFSET 0 16.1857 0
              CHANNELS 3 Zrotation Xrotation Yrotation
              End Site
              {
                OFFSET 0.00686052 7.83863 -0.903521
              }
            }
          }
        }
      }
    }
  }
  JOINT LeftUpLeg
  {
    OFFSET 7.20834 -1.32182 -1.10884
    CHANNELS 3 Zrotation Xrotation Yrotation
    JOINT LeftUpLegRoll
    {
      OFFSET 0 18.7239 0
      CHANNELS 3 Zrotation Xrotation Yrotation
      JOINT LeftLeg
      {
        OFFSET 0 23.1865 0
        CHANNELS 3 Zrotation Xrotation Yrotation
        JOINT LeftLegRoll
        {
          OFFSET 0 23.4775 0
          CHANNELS 3 Zrotation Xrotation Yrotation
          JOINT LeftFoot
          {
            OFFSET 0 19.147 0
            CHANNELS 3 Zrotation Xrotation Yrotation
            JOINT LeftToeBase
            {
              OFFSET 0 16.1857 0
              CHANNELS 3 Zrotation Xrotation Yrotation
              End Site
              {
                OFFSET -0.0307459 7.83863 -0.903522
              }
            }
          }
        }
      }
    }
  }
}
MOTION
Frames: 10
Frame Time: 0.00208333
51.8966 96.1978 7.51473 -1.42286 -5.48034 0.232708 0.720128 -0.854757 -0.0418384 1.44083 2.29279 -0.164702 1.44427 3.93757 -0.188973 -0.390691 12.5063 -5.51768 -0.18584 -0.285386 -5.68245 63.3501 -9.74912 -6.09407 108.291 20.6608 22.2227 1.48623e-006 -1.16626e-006 -2.64008e-006 4.77186 1.43459 -0.640067 -6.73221e-006 -2.22006e-006 -3.00901 8.02959 -4.95143 0.697659 -62.0794 -4.45402 2.98795 -108.548 19.7829 -7.67865 -3.62579e-008 2.91198e-006 5.49621e-006 -8.78496 0.0668223 1.14188 1.42125e-005 -1.18897e-008 3.05268 -8.02908 -4.95143 -0.697688 174.15 0.00142659 3.21533 180 7.01537e-015 178.88 178.753 10.6967 179.679 -1.49666e-006 -1.14852e-006 0.100999 -18.1116 68.3299 19.7998 8.13649 25.2327 -3.48773 -172.093 -1.3572 -2.33701 4.54188e-006 -4.6773e-006 -0.95082 -0.807896 -12.9994 0.557789 -2.31005e-006 1.7212e-006 -0.189161 19.6092 71.7665 -23.0123 -8.13666 25.2352 3.4844 
51.9164 96.1971 7.51955 -1.42621 -5.48587 0.219149 0.719702 -0.853253 -0.0418134 1.43998 2.2968 -0.164875 1.44342 3.94158 -0.189114 -0.38932 12.4817 -5.51846 -0.194991 -0.279559 -5.68383 63.3601 -9.75288 -6.0963 108.285 20.6559 22.3101 1.48623e-006 -1.16626e-006 -2.64008e-006 4.71147 1.40394 -0.635553 -6.73221e-006 -2.22006e-006 -3.00901 8.02959 -4.95143 0.697659 -62.0707 -4.46094 2.99139 -108.549 19.7784 -7.72152 -3.62579e-008 2.91198e-006 5.49621e-006 -8.76597 0.0668257 1.15095 1.42125e-005 -1.18897e-008 3.05285 -8.02908 -4.95143 -0.697688 174.147 0.0136068 3.21003 180 7.01537e-015 178.88 178.766 10.7309 179.677 -1.49666e-006 -1.14852e-006 0.103365 -18.1394 68.3541 19.8202 8.13649 25.2327 -3.48773 -172.099 -1.36204 -2.33462 4.54188e-006 -4.6773e-006 -0.950863 -0.807185 -13.0158 0.557726 -2.31005e-006 1.7212e-006 -0.190204 19.6343 71.7815 -23.0307 -8.13666 25.2352 3.4844 
51.9306 96.1954 7.52884 -1.42956 -5.49135 0.205797 0.719269 -0.851764 -0.0417887 1.4391 2.30085 -0.165085 1.44255 3.94563 -0.189291 -0.387281 12.4565 -5.51927 -0.204608 -0.273187 -5.68512 63.3706 -9.75678 -6.09861 108.278 20.6508 22.3954 1.48623e-006 -1.16626e-006 -2.64008e-006 4.6527 1.37306 -0.631155 -6.73221e-006 -2.22006e-006 -3.00901 8.02959 -4.95143 0.697659 -62.0613 -4.4681 2.99491 -108.551 19.7741 -7.76396 -3.62579e-008 2.91198e-006 5.49621e-006 -8.74718 0.0668291 1.16024 1.42125e-005 -1.18897e-008 3.05302 -8.02908 -4.95143 -0.697688 174.145 0.0264226 3.20448 180 7.01537e-015 178.88 178.78 10.7662 179.674 -1.49666e-006 -1.14852e-006 0.10581 -18.1683 68.3793 19.8413 8.13649 25.2327 -3.48773 -172.106 -1.36672 -2.33225 4.54188e-006 -4.6773e-006 -0.95089 -0.806489 -13.0324 0.557657 -2.31005e-006 1.7212e-006 -0.191249 19.6596 71.7965 -23.0492 -8.13666 25.2352 3.4844 
51.9347 96.1938 7.53128 -1.43291 -5.49681 0.19259 0.718832 -0.850286 -0.0417643 1.43822 2.30493 -0.165321 1.44167 3.94971 -0.189493 -0.384776 12.431 -5.52012 -0.214551 -0.266435 -5.68634 63.3814 -9.76077 -6.10097 108.271 20.6455 22.4794 1.48623e-006 -1.16626e-006 -2.64008e-006 4.59508 1.34203 -0.626839 -6.73221e-006 -2.22006e-006 -3.00901 8.02959 -4.95143 0.697659 -62.0516 -4.47541 2.9985 -108.553 19.77 -7.80609 -3.62579e-008 2.91198e-006 5.49621e-006 -8.72852 0.0668324 1.1697 1.42125e-005 -1.18897e-008 3.05319 -8.02908 -4.95143 -0.697688 174.142 0.0396834 3.19877 180 7.01537e-015 178.88 178.794 10.8025 179.671 -1.49666e-006 -1.14852e-006 0.108313 -18.1981 68.405 19.863 8.13649 25.2327 -3.48773 -172.112 -1.37129 -2.3299 4.54188e-006 -4.6773e-006 -0.950907 -0.805802 -13.0491 0.557584 -2.31005e-006 1.7212e-006 -0.192294 19.6851 71.8116 -23.0677 -8.13666 25.2352 3.4844 
51.9548 96.1949 7.54132 -1.43626 -5.50226 0.179466 0.718391 -0.848814 -0.04174 1.43733 2.30902 -0.165571 1.44079 3.95379 -0.189709 -0.382003 12.4052 -5.52097 -0.224681 -0.259465 -5.68753 63.3925 -9.76481 -6.10336 108.264 20.64 22.5625 1.48623e-006 -1.16626e-006 -2.64008e-006 4.53812 1.3109 -0.622569 -6.73221e-006 -2.22006e-006 -3.00901 8.02959 -4.95143 0.697659 -62.0415 -4.4828 3.00212 -108.556 19.7659 -7.84804 -3.6258e-008 2.91198e-006 5.49621e-006 -8.70993 0.0668358 1.17925 1.42125e-005 -1.18897e-008 3.05335 -8.02908 -4.95143 -0.697688 174.14 0.0531985 3.19296 180 7.01537e-015 178.88 178.808 10.8393 179.669 -1.49666e-006 -1.14852e-006 0.110847 -18.2283 68.431 19.885 8.13649 25.2327 -3.48773 -172.118 -1.37578 -2.32756 4.54188e-006 -4.6773e-006 -0.950918 -0.805122 -13.0658 0.557508 -2.31005e-006 1.7212e-006 -0.193339 19.7106 71.8266 -23.0864 -8.13666 25.2352 3.4844 
51.9661 96.1941 7.54341 -1.43962 -5.5077 0.166362 0.717951 -0.847344 -0.0417157 1.43643 2.31311 -0.165826 1.4399 3.95789 -0.189928 -0.379165 12.3794 -5.52184 -0.234857 -0.252441 -5.68872 63.4036 -9.76886 -6.10576 108.256 20.6345 22.6454 1.48623e-006 -1.16626e-006 -2.64008e-006 4.48132 1.27975 -0.618312 -6.73221e-006 -2.22006e-006 -3.00901 8.02959 -4.95143 0.697659 -62.0315 -4.49023 3.00575 -108.558 19.7619 -7.88994 -3.62579e-008 2.91198e-006 5.49621e-006 -8.69136 0.0668391 1.18882 1.42125e-005 -1.18897e-008 3.05352 -8.02908 -4.95143 -0.697688 174.137 0.0667774 3.18713 180 7.01537e-015 178.88 178.823 10.8761 179.666 -1.49666e-006 -1.14852e-006 0.11339 -18.2587 68.4572 19.9071 8.13649 25.2327 -3.48773 -172.125 -1.38026 -2.32523 4.54188e-006 -4.6773e-006 -0.950927 -0.804442 -13.0826 0.557432 -2.31005e-006 1.7212e-006 -0.194385 19.7362 71.8417 -23.105 -8.13666 25.2352 3.4844 
51.9824 96.1812 7.54284 -1.44298 -5.51315 0.153216 0.717511 -0.84587 -0.0416914 1.43554 2.31719 -0.166073 1.43901 3.96197 -0.190141 -0.37646 12.3537 -5.52269 -0.244939 -0.245526 -5.68992 63.4146 -9.77289 -6.10815 108.249 20.629 22.7287 1.48623e-006 -1.16626e-006 -2.64008e-006 4.4242 1.24865 -0.614031 -6.73221e-006 -2.22006e-006 -3.00901 8.02959 -4.95143 0.697659 -62.0215 -4.4976 3.00937 -108.561 19.7578 -7.93193 -3.62579e-008 2.91198e-006 5.49621e-006 -8.67275 0.0668424 1.19834 1.42125e-005 -1.18897e-008 3.05368 -8.02908 -4.95143 -0.697688 174.135 0.0802293 3.18134 180 7.01537e-015 178.88 178.837 10.9128 179.663 -1.49666e-006 -1.14852e-006 0.115916 -18.2889 68.4832 19.9292 8.13649 25.2327 -3.48773 -172.131 -1.38477 -2.32288 4.54188e-006 -4.6773e-006 -0.950939 -0.80376 -13.0993 0.557358 -2.31005e-006 1.7212e-006 -0.19543 19.7618 71.8567 -23.1237 -8.13666 25.2352 3.4844 
51.9878 96.1818 7.54957 -1.44634 -5.51862 0.139967 0.717075 -0.844389 -0.0416668 1.43466 2.32126 -0.166301 1.43814 3.96604 -0.190335 -0.374091 12.3282 -5.52353 -0.254788 -0.238883 -5.69116 63.4254 -9.77685 -6.11049 108.242 20.6235 22.813 1.48623e-006 -1.16626e-006 -2.64008e-006 4.36627 1.21766 -0.609693 -6.73221e-006 -2.22006e-006 -3.00901 8.02959 -4.95143 0.697659 -62.0119 -4.50487 3.01293 -108.563 19.7535 -7.97414 -3.62579e-008 2.91198e-006 5.49621e-006 -8.65405 0.0668458 1.20775 1.42125e-005 -1.18897e-008 3.05385 -8.02908 -4.95143 -0.697688 174.132 0.0933636 3.17568 180 7.01537e-015 178.88 178.851 10.9488 179.661 -1.49666e-006 -1.14852e-006 0.118402 -18.3187 68.5087 19.9509 8.13649 25.2327 -3.48773 -172.137 -1.38936 -2.32053 4.54188e-006 -4.6773e-006 -0.950959 -0.803071 -13.116 0.557286 -2.31005e-006 1.7212e-006 -0.196475 19.7873 71.8718 -23.1424 -8.13666 25.2352 3.4844 
51.9973 96.1966 7.56488 -1.44971 -5.52412 0.126551 0.716644 -0.842896 -0.0416421 1.43379 2.3253 -0.1665 1.43727 3.97008 -0.190501 -0.372257 12.3032 -5.52434 -0.264264 -0.232675 -5.69248 63.4357 -9.78071 -6.11278 108.235 20.6181 22.8989 1.48623e-006 -1.16626e-006 -2.64008e-006 4.30705 1.18685 -0.605262 -6.73221e-006 -2.22006e-006 -3.00901 8.02959 -4.95143 0.697659 -62.0027 -4.51195 3.01643 -108.565 19.7491 -8.01669 -3.62579e-008 2.91198e-006 5.49621e-006 -8.6352 0.0668491 1.21698 1.42125e-005 -1.18897e-008 3.05402 -8.02908 -4.95143 -0.697688 174.129 0.10599 3.1702 180 7.01537e-015 178.88 178.865 10.9838 179.658 -1.49666e-006 -1.14852e-006 0.120824 -18.3476 68.5336 19.9722 8.13649 25.2327 -3.48773 -172.144 -1.39409 -2.31815 4.54188e-006 -4.6773e-006 -0.950992 -0.80237 -13.1325 0.557219 -2.31005e-006 1.7212e-006 -0.19752 19.8127 71.8868 -23.161 -8.13666 25.2352 3.4844 
52.0176 96.1919 7.56636 -1.45307 -5.52966 0.112908 0.71622 -0.841385 -0.041617 1.43294 2.32929 -0.166658 1.43643 3.97408 -0.190628 -0.37116 12.2788 -5.52512 -0.273226 -0.227065 -5.69389 63.4455 -9.78442 -6.11497 108.229 20.6129 22.987 1.48623e-006 -1.16626e-006 -2.64008e-006 4.24605 1.15629 -0.600704 -6.73221e-006 -2.22006e-006 -3.00901 8.02959 -4.95143 0.697659 -61.9942 -4.51879 3.01983 -108.566 19.7444 -8.05973 -3.62579e-008 2.91198e-006 5.49621e-006 -8.61614 0.0668525 1.22595 1.42125e-005 -1.18897e-008 3.05419 -8.02908 -4.95143 -0.697688 174.127 0.117917 3.16499 180 7.01537e-015 178.88 178.878 11.0174 179.656 -1.49666e-006 -1.14852e-006 0.123157 -18.3754 68.5574 19.9926 8.13649 25.2327 -3.48773 -172.15 -1.39901 -2.31575 4.54188e-006 -4.6773e-006 -0.951041 -0.801654 -13.1488 0.557158 -2.31005e-006 1.7212e-006 -0.198563 19.838 71.9017 -23.1796 -8.13666 25.2352 3.4844 
